<?xml version="1.0" encoding="utf-8"?>
<!-- Generator: Adobe Illustrator 18.1.1, SVG Export Plug-In . SVG Version: 6.00 Build 0)  -->
<svg version="1.1" id="Layer_1" xmlns="http://www.w3.org/2000/svg" xmlns:xlink="http://www.w3.org/1999/xlink" x="0px" y="0px"
	 viewBox="0 0 596.5 595.3" enable-background="new 0 0 596.5 595.3" xml:space="preserve">
<ellipse fill="#FFFFFF" stroke="#000000" stroke-miterlimit="10" cx="298.7" cy="298.2" rx="294.7" ry="294.2"/>
<g id="Slika">
	<g id="Zgrade">
		<polyline fill="#F16824" stroke="#000000" stroke-linecap="round" stroke-linejoin="round" stroke-miterlimit="10" points="
			560.2,387.4 560.2,322.6 539.7,310.7 539.7,442.6 560.2,387.4 		"/>
		<polygon fill="#414141" stroke="#000000" stroke-linejoin="round" stroke-miterlimit="10" points="494.7,499.1 494.7,336.6 
			539.7,310.7 539.7,440.9 		"/>
		<polygon fill="#F16824" stroke="#000000" stroke-linecap="round" stroke-linejoin="round" stroke-miterlimit="10" points="
			323.3,576.5 323.3,140.4 413.4,192.8 413.4,561.1 		"/>
		<polyline fill="#414141" stroke="#000000" stroke-linejoin="round" stroke-miterlimit="10" points="285.6,252.5 268.1,242.9 
			268.1,172.3 323.3,140.9 323.3,575.4 285.6,575.8 285.6,252.5 		"/>
		<polygon fill="#414141" stroke="#000000" stroke-linejoin="round" stroke-miterlimit="10" points="181.1,551.2 181.1,246.3 
			227.7,220.1 227.7,566.9 		"/>
		<polygon fill="#F16824" stroke="#000000" stroke-linecap="round" stroke-linejoin="round" stroke-miterlimit="10" points="
			227.7,568 227.7,220.1 285.6,252.5 285.6,578.1 		"/>
	</g>
	<path id="Krug" fill="#414141" stroke="#000000" stroke-linejoin="round" stroke-miterlimit="10" d="M298.2-0.4
		C133.7-0.4,0,132.8,0,297.8S133.3,596,298.2,596c164.5,0,298.2-133.3,298.2-298.2S462.8-0.4,298.2-0.4z M298.2,574.2
		c-152.6,0-276.6-123.6-276.6-276.6C21.6,145,145.2,20.9,298.2,20.9c152.6,0,276.6,123.6,276.6,276.6S450.8,574.2,298.2,574.2z"/>
</g>
</svg>
