<?xml version="1.0" encoding="utf-8"?>
<!-- Generator: Adobe Illustrator 18.1.1, SVG Export Plug-In . SVG Version: 6.00 Build 0)  -->
<svg version="1.1" id="Layer_1" xmlns="http://www.w3.org/2000/svg" xmlns:xlink="http://www.w3.org/1999/xlink" x="0px" y="0px"
	 viewBox="0 0 502.1 316.6" enable-background="new 0 0 502.1 316.6" xml:space="preserve">
<g id="Backup_natpis" display="none">
	
		<text transform="matrix(1 0 0 1 35.012 237.889)" display="inline" fill="#414141" stroke="#000000" stroke-linejoin="round" stroke-miterlimit="10" font-family="'Zekton-Bold'" font-size="90.4">Modeling</text>
	<g id="Prokuplje_1_" display="inline">
		
			<text transform="matrix(1 0 0 1 62.5692 305.0751)" fill="#FFFFFF" stroke="#000000" stroke-miterlimit="10" font-family="'Zekton-Bold'" font-size="41">P</text>
		
			<text transform="matrix(1 0 0 1 118.1525 305.0751)" fill="#FFFFFF" stroke="#000000" stroke-miterlimit="10" font-family="'Zekton-Bold'" font-size="41">r</text>
		
			<text transform="matrix(1 0 0 1 161.819 305.0751)" fill="#FFFFFF" stroke="#000000" stroke-miterlimit="10" font-family="'Zekton-Bold'" font-size="41">o</text>
		
			<text transform="matrix(1 0 0 1 212.8195 305.0751)" fill="#FFFFFF" stroke="#000000" stroke-miterlimit="10" font-family="'Zekton-Bold'" font-size="41">k</text>
		
			<text transform="matrix(1 0 0 1 261.8195 305.0751)" fill="#FFFFFF" stroke="#000000" stroke-miterlimit="10" font-family="'Zekton-Bold'" font-size="41">u</text>
		
			<text transform="matrix(1 0 0 1 312.1525 305.0751)" fill="#FFFFFF" stroke="#000000" stroke-miterlimit="10" font-family="'Zekton-Bold'" font-size="41">p</text>
		
			<text transform="matrix(1 0 0 1 366.1522 305.0751)" fill="#FFFFFF" stroke="#000000" stroke-miterlimit="10" font-family="'Zekton-Bold'" font-size="41">lj</text>
		
			<text transform="matrix(1 0 0 1 412.1525 305.0751)" fill="#FFFFFF" stroke="#000000" stroke-miterlimit="10" font-family="'Zekton-Bold'" font-size="41">e</text>
	</g>
</g>
<g id="Prokuplje">
	<g>
		<path fill="none" stroke="#000000" stroke-miterlimit="10" d="M70.1,276v30.8h-5.3v-36.1h16c5.2,0,7.8,2.6,7.8,7.8v4.1
			c0,5.2-2.6,7.8-7.8,7.8h-9V285h9c1.6,0,2.5-0.8,2.5-2.5v-4.1c0-1.6-0.8-2.5-2.5-2.5H70.1z"/>
	</g>
	<g>
		<path fill="none" stroke="#000000" stroke-miterlimit="10" d="M125.7,306.7h-5.3v-18c0-5.2,2.6-7.8,7.8-7.8h3.7v5.3h-3.7
			c-1.6,0-2.5,0.8-2.5,2.5V306.7z"/>
	</g>
	<g>
		<path fill="none" stroke="#000000" stroke-miterlimit="10" d="M164,288.7c0-5.2,2.6-7.8,7.8-7.8h8.2c5.2,0,7.8,2.6,7.8,7.8V299
			c0,5.1-2.6,7.7-7.8,7.7h-8.2c-5.2,0-7.8-2.6-7.8-7.8V288.7z M180,301.4c1.6,0,2.5-0.8,2.5-2.4v-10.3c0-1.6-0.8-2.5-2.5-2.5h-8.2
			c-1.6,0-2.5,0.8-2.5,2.5v10.3c0,1.6,0.8,2.5,2.5,2.5H180z"/>
	</g>
	<g>
		<path fill="none" stroke="#000000" stroke-miterlimit="10" d="M222.3,293.8l14.6,12.9h-8l-8.5-8v8H215v-36.1h5.3v18.3l8.5-8h8
			L222.3,293.8z"/>
	</g>
	<g>
		<path fill="none" stroke="#000000" stroke-miterlimit="10" d="M280,301.4c1.6,0,2.5-0.8,2.5-2.4v-18.1h5.3V299
			c0,5.1-2.6,7.7-7.8,7.7h-8.2c-5.2,0-7.8-2.6-7.8-7.8v-18h5.3v18c0,1.6,0.8,2.5,2.5,2.5H280z"/>
	</g>
	<g>
		<path fill="none" stroke="#000000" stroke-miterlimit="10" d="M319.7,312.9h-5.3v-24.2c0-5.2,2.6-7.8,7.8-7.8h8.2
			c5.2,0,7.8,2.6,7.8,7.8v10.3c0,5.2-2.6,7.8-7.8,7.8h-9v-5.3h9c1.6,0,2.5-0.8,2.5-2.5v-10.3c0-1.6-0.8-2.5-2.5-2.5h-8.2
			c-1.6,0-2.5,0.8-2.5,2.5V312.9z"/>
	</g>
	<g>
		<path fill="none" stroke="#000000" stroke-miterlimit="10" d="M368.4,270.6h5.3v36.1h-5.3V270.6z"/>
		<path fill="none" stroke="#000000" stroke-miterlimit="10" d="M374.5,309.6c2.7,0,4.1-0.8,4.1-2.5v-26.2h5.3v26.2
			c0,5.2-3.1,7.8-9.4,7.8V309.6z M378,270.6h6.6v6.6H378V270.6z"/>
	</g>
	<g>
		<path fill="none" stroke="#000000" stroke-miterlimit="10" d="M436.1,301.4v5.3h-13.9c-5.2,0-7.8-2.6-7.8-7.8v-10.3
			c0-5.2,2.6-7.8,7.8-7.8h8.2c5.2,0,7.8,2.6,7.8,7.8v0.1c0,5.1-2.6,7.7-7.8,7.7h-9v-5.3h9c1.6,0,2.5-0.8,2.5-2.4v-0.1
			c0-1.6-0.8-2.5-2.5-2.5h-8.2c-1.6,0-2.5,0.8-2.5,2.5v10.3c0,1.6,0.8,2.5,2.5,2.5H436.1z"/>
	</g>
</g>
<path d="M501.2,255.9H0.8c-0.5,0-0.8-0.8-0.8-1.7s0.4-1.7,0.8-1.7h500.4c0.5,0,0.8,0.8,0.8,1.7S501.7,255.9,501.2,255.9z"/>
<g>
	<path fill="#414141" stroke="#000000" stroke-linejoin="round" stroke-miterlimit="10" d="M39.4,162.3h11l24,60.9l23.8-60.9h11
		v79.6H97.4v-46.5l-18.2,46.5h-9.9l-18.3-46.5v46.5H39.4V162.3z"/>
	<path fill="#414141" stroke="#000000" stroke-linejoin="round" stroke-miterlimit="10" d="M118.2,202.1c0-11.4,5.7-17.2,17.2-17.2
		h18.1c11.4,0,17.2,5.7,17.2,17.2v22.8c0,11.3-5.7,17-17.2,17h-18.1c-11.5,0-17.2-5.7-17.2-17.2V202.1z M153.4,230.1
		c3.6,0,5.4-1.7,5.4-5.2v-22.8c0-3.6-1.8-5.4-5.4-5.4h-18.1c-3.6,0-5.4,1.8-5.4,5.4v22.6c0,3.6,1.8,5.4,5.4,5.4H153.4z"/>
	<path fill="#414141" stroke="#000000" stroke-linejoin="round" stroke-miterlimit="10" d="M220.3,154.4c4.6,1.8,8.6,3,12.2,3.8
		l0,66.5c0,11.5-6.2,17.2-17.6,17.2h-18.1c-11.5,0-17.2-5.7-17.2-17.2v-22.6c0-11.4,5.7-17.2,17.2-17.2h19.9v11.8h-19.9
		c-3.6,0-5.4,1.8-5.4,5.4v22.6c0,3.6,1.8,5.4,5.4,5.4h18.1c3.6,0,5.4-1.8,5.4-5.4V154.4z"/>
	<path fill="#414141" stroke="#000000" stroke-linejoin="round" stroke-miterlimit="10" d="M289,230.1v11.8h-30.7
		c-11.5,0-17.2-5.7-17.2-17.2v-22.6c0-11.4,5.7-17.2,17.2-17.2h18.1c11.4,0,17.2,5.7,17.2,17.2v0.2c0,11.3-5.7,17-17.2,17h-19.9
		v-11.8h19.9c3.6,0,5.4-1.7,5.4-5.2v-0.2c0-3.6-1.8-5.4-5.4-5.4h-18.1c-3.6,0-5.4,1.8-5.4,5.4v22.6c0,3.6,1.8,5.4,5.4,5.4H289z"/>
	<path fill="#414141" stroke="#000000" stroke-linejoin="round" stroke-miterlimit="10" d="M301.7,142.6c4.2-3.4,8.1-7.2,11.8-11.3
		v110.5h-11.8V142.6z"/>
	<path fill="#F16824" stroke="#000000" stroke-linecap="round" stroke-linejoin="round" stroke-miterlimit="10" d="M322.5,162.3H337
		v14.6h-14.5V162.3z M323.9,184.9h11.8v57h-11.8V184.9z"/>
	<path fill="#F16824" stroke="#000000" stroke-linecap="round" stroke-linejoin="round" stroke-miterlimit="10" d="M398.4,241.8
		h-11.8v-39.8c0-3.6-1.8-5.4-5.4-5.4h-23.5v45.2H346v-57h35.3c11.4,0,17.2,5.7,17.2,17.2V241.8z"/>
	<path fill="#F16824" stroke="#000000" stroke-linecap="round" stroke-linejoin="round" stroke-miterlimit="10" d="M442.7,248.2
		c3.6,0,5.4-1.8,5.4-5.4v-40.7c0-3.6-1.8-5.4-5.4-5.4h-18.1c-3.6,0-5.4,1.8-5.4,5.4v22.6c0,3.6,1.8,5.4,5.4,5.4h19.9v11.8h-19.9
		c-11.5,0-17.2-5.7-17.2-17.2v-22.6c0-11.4,5.7-17.2,17.2-17.2h18.1c11.4,0,17.2,5.7,17.2,17.2v40.7c0,11.4-5.7,17.2-17.2,17.2H421
		v-11.8H442.7z"/>
</g>
<g id="Slika">
	<g id="Zgrade">
		<polyline fill="#F16824" stroke="#000000" stroke-linecap="round" stroke-linejoin="round" stroke-miterlimit="10" points="
			318.9,101.2 318.9,84.4 313.6,81.3 313.6,115.5 318.9,101.2 		"/>
		<polygon fill="#414141" stroke="#000000" stroke-linejoin="round" stroke-miterlimit="10" points="301.9,130.2 301.9,88 
			313.6,81.3 313.6,115.1 		"/>
		<polygon fill="#F16824" stroke="#000000" stroke-linecap="round" stroke-linejoin="round" stroke-miterlimit="10" points="
			257.4,150.3 257.4,37.1 280.8,50.7 280.8,146.3 		"/>
		<polyline fill="#414141" stroke="#000000" stroke-linejoin="round" stroke-miterlimit="10" points="247.6,66.2 243.1,63.7 
			243.1,45.4 257.4,37.2 257.4,150 247.6,150.1 247.6,66.2 		"/>
		<polygon fill="#414141" stroke="#000000" stroke-linejoin="round" stroke-miterlimit="10" points="220.5,143.7 220.5,64.6 
			232.6,57.8 232.6,147.8 		"/>
		<polygon fill="#F16824" stroke="#000000" stroke-linecap="round" stroke-linejoin="round" stroke-miterlimit="10" points="
			232.6,148.1 232.6,57.8 247.6,66.2 247.6,150.7 		"/>
	</g>
	<path id="Krug" fill="#414141" stroke="#000000" stroke-linejoin="round" stroke-miterlimit="10" d="M250.9,0.5
		c-42.7,0-77.4,34.6-77.4,77.4s34.6,77.4,77.4,77.4c42.7,0,77.4-34.6,77.4-77.4S293.6,0.5,250.9,0.5z M250.9,149.7
		c-39.6,0-71.8-32.1-71.8-71.8c0-39.6,32.1-71.8,71.8-71.8c39.6,0,71.8,32.1,71.8,71.8C322.7,117.6,290.5,149.7,250.9,149.7z"/>
</g>
</svg>
